<svg id="Layer_1" data-name="Layer 1" xmlns="http://www.w3.org/2000/svg" xmlns:xlink="http://www.w3.org/1999/xlink" viewBox="0 0 206.57 311.25"><defs><style>.cls-1{fill:none;}.cls-2{clip-path:url(#clip-path);}.cls-3{fill:#fff;}.cls-4{fill:#fed626;}</style><clipPath id="clip-path" transform="translate(-146.72 -94.37)"><rect class="cls-1" width="500" height="500"/></clipPath></defs><g class="cls-2"><path class="cls-3" d="M208.21,171.27V309.45c0,13,1.51,22.83,4.63,29.51,5.39,11.63,16.16,17.45,32,17.45q30.54,0,41.9-24.88,5.81-13.41,5.81-35.54V171.27h60.74v229.3H295V368.15c-.54.75-1.94,2.8-4.2,6.35a40.9,40.9,0,0,1-8,9.26c-9.37,8.4-18.42,14.11-27.14,17.24s-19.06,4.63-30.7,4.63q-50.71,0-68.39-36.62c-6.57-13.46-9.8-33.28-9.9-59.56V171.27Z" transform="translate(-146.72 -94.37)"/><rect class="cls-4" x="10.88" width="183.09" height="37.7"/></g></svg>